# xmcd
#
# Track frame offsets:
#	150
#	13384
#	29527
#	45909
#	59939
#	73688
#	90015
#	107300
#	125315
#	139957
#	157273
#	169508
#	188086
#	204623
#	217259
#	230178
#	247022
#	264888
#	276908
#	294372
#	305121
#
# Disc length: 4224
#
# Revision: 1
# Processed by: cddbd v1.5.1PL0 Copyright (c) Steve Scherf et al.
# Submitted via: CDex 1.40Release
# Normalized: r0:TDELIM( - )
#
DISCID=41107e15
DTITLE=Country Club - Best Of Nashville and New Country CD 01
DYEAR=2002
DGENRE=Country
TTITLE0=Dwight Yoakam - What Do You Know About Love
TTITLE1=Patty Loveless - Blame It On Your Heart
TTITLE2=Alan Jackson - Here In The Real  World
TTITLE3=Vince Gill - Don't Come Cryin To Me
TTITLE4=The Derailers - More Of Your Love
TTITLE5=Brad Paisley - Part Two
TTITLE6=Dixie Chicks - Hello Mr. Heartache
TTITLE7=Lonestar - Amazed
TTITLE8=Brooks and Dunn - Honky Tonk Truth
TTITLE9=Kenny Chesney - You Had Me From Hello
TTITLE10=Danni Leigh - If The Jukebox Took Teardrops
TTITLE11=Tracy Byrd - Keeper Of The Stars
TTITLE12=Mark Chesnutt - Too Cold At Home
TTITLE13=Clint Black - Summer's Comin'
TTITLE14=Pam Tillis - Mi Vida Loca (My Crazy Life)
TTITLE15=Aaron Tippin - Whole Lotta Love On The Line
TTITLE16=Michelle Wright - Take It Like A Man
TTITLE17=Restless Heart - You Can Depend On Me
TTITLE18=Sara Evans - The Great Unknown
TTITLE19=Diamond Rio - Unbelievable
TTITLE20=Martina McBride - My Baby Loves Me
EXTD=YEAR: 2002 ID3G: 2
EXTT0=
EXTT1=
EXTT2=
EXTT3=
EXTT4=
EXTT5=
EXTT6=
EXTT7=
EXTT8=
EXTT9=
EXTT10=
EXTT11=
EXTT12=
EXTT13=
EXTT14=
EXTT15=
EXTT16=
EXTT17=
EXTT18=
EXTT19=
EXTT20=
PLAYORDER=
